<svg width="77" height="75" viewBox="0 0 77 75" fill="none" xmlns="http://www.w3.org/2000/svg">
<rect width="12.7232" height="12.7232" fill="#376981"/>
<rect x="12.7233" y="12.7232" width="12.7232" height="12.7232" fill="#376981" fill-opacity="0.8"/>
<rect x="25.4463" y="25.4464" width="12.7232" height="12.7232" fill="#376981" fill-opacity="0.7"/>
<rect x="38.1697" y="12.7232" width="12.7232" height="12.7232" fill="#376981" fill-opacity="0.7"/>
<rect x="50.8929" y="12.7232" width="12.7232" height="12.7232" fill="#376981" fill-opacity="0.6"/>
<rect x="38.1697" y="38.1696" width="12.7232" height="12.7232" fill="#376981" fill-opacity="0.4"/>
<rect x="50.8929" y="62.2768" width="12.7232" height="12.7232" fill="#376981" fill-opacity="0.2"/>
<rect x="63.616" y="38.1696" width="12.7232" height="12.7232" fill="#376981" fill-opacity="0.3"/>
<rect y="12.7232" width="12.7232" height="12.7232" fill="#376981"/>
<rect y="25.4464" width="12.7232" height="12.7232" fill="#376981" fill-opacity="0.7"/>
<rect y="38.1696" width="12.7232" height="12.7232" fill="#376981" fill-opacity="0.5"/>
<rect x="12.7233" y="50.8929" width="12.7232" height="12.7232" fill="#376981" fill-opacity="0.4"/>
<rect x="12.7233" width="12.7232" height="12.7232" fill="#376981"/>
<rect x="25.4463" width="12.7232" height="12.7232" fill="#376981"/>
<rect x="38.1697" width="12.7232" height="12.7232" fill="#376981" fill-opacity="0.8"/>
<rect x="50.8929" width="12.7232" height="12.7232" fill="#376981" fill-opacity="0.7"/>
<rect x="63.616" width="12.7232" height="12.7232" fill="#376981" fill-opacity="0.4"/>
</svg>

