<svg width="77" height="76" viewBox="0 0 77 76" fill="none" xmlns="http://www.w3.org/2000/svg">
<rect x="76.9999" y="75.1053" width="12.7411" height="12.7411" transform="rotate(180 76.9999 75.1053)" fill="#376981"/>
<rect x="64.2588" y="62.3642" width="12.7411" height="12.7411" transform="rotate(180 64.2588 62.3642)" fill="#376981" fill-opacity="0.8"/>
<rect x="51.5179" y="49.6232" width="12.7411" height="12.7411" transform="rotate(180 51.5179 49.6232)" fill="#376981" fill-opacity="0.7"/>
<rect x="38.7767" y="62.3642" width="12.7411" height="12.7411" transform="rotate(180 38.7767 62.3642)" fill="#376981" fill-opacity="0.7"/>
<rect x="26.0354" y="62.3642" width="12.7411" height="12.7411" transform="rotate(180 26.0354 62.3642)" fill="#376981" fill-opacity="0.6"/>
<rect x="38.7767" y="36.8821" width="12.7411" height="12.7411" transform="rotate(180 38.7767 36.8821)" fill="#376981" fill-opacity="0.4"/>
<rect x="26.0354" y="12.7411" width="12.7411" height="12.7411" transform="rotate(180 26.0354 12.7411)" fill="#376981" fill-opacity="0.2"/>
<rect x="13.2947" y="36.8821" width="12.7411" height="12.7411" transform="rotate(180 13.2947 36.8821)" fill="#376981" fill-opacity="0.3"/>
<rect x="76.9999" y="62.3642" width="12.7411" height="12.7411" transform="rotate(180 76.9999 62.3642)" fill="#376981"/>
<rect x="76.9999" y="49.6232" width="12.7411" height="12.7411" transform="rotate(180 76.9999 49.6232)" fill="#376981" fill-opacity="0.7"/>
<rect x="76.9999" y="36.8821" width="12.7411" height="12.7411" transform="rotate(180 76.9999 36.8821)" fill="#376981" fill-opacity="0.5"/>
<rect x="64.2588" y="24.141" width="12.7411" height="12.7411" transform="rotate(180 64.2588 24.141)" fill="#376981" fill-opacity="0.4"/>
<rect x="64.2588" y="75.1053" width="12.7411" height="12.7411" transform="rotate(180 64.2588 75.1053)" fill="#376981"/>
<rect x="51.5179" y="75.1053" width="12.7411" height="12.7411" transform="rotate(180 51.5179 75.1053)" fill="#376981"/>
<rect x="38.7767" y="75.1053" width="12.7411" height="12.7411" transform="rotate(180 38.7767 75.1053)" fill="#376981" fill-opacity="0.8"/>
<rect x="26.0354" y="75.1053" width="12.7411" height="12.7411" transform="rotate(180 26.0354 75.1053)" fill="#376981" fill-opacity="0.7"/>
<rect x="13.2947" y="75.1053" width="12.7411" height="12.7411" transform="rotate(180 13.2947 75.1053)" fill="#376981" fill-opacity="0.4"/>
</svg>

