<svg width="36" height="35" viewBox="0 0 36 35" fill="none" xmlns="http://www.w3.org/2000/svg">
<mask id="mask0_2679_16439" style="mask-type:alpha" maskUnits="userSpaceOnUse" x="0" y="0" width="36" height="35">
<rect x="0.5" width="35" height="35" fill="#FF0000"/>
</mask>
<g mask="url(#mask0_2679_16439)">
<path d="M29.6017 6.32875L18.2845 14.9939L6.96753 6.32896C6.9676 2.99844 12.0402 0.300481 18.2846 0.300293C24.529 0.300106 29.6014 2.99845 29.6017 6.32875Z" fill="#D8D900"/>
<path d="M18.2844 14.9952L6.96753 23.6756V6.33008L18.2844 14.9952Z" fill="#9AC014"/>
<path d="M29.6014 23.6771C29.6014 24.6485 29.2316 25.62 28.4914 26.3598C27.0266 27.8246 22.401 32.4349 20.9519 33.8997C20.2117 34.6395 19.2406 35.0096 18.2844 35.0096C17.313 35.0096 16.3572 34.6395 15.617 33.8997C14.2911 32.5891 9.66588 27.9482 8.07748 26.3598C7.33764 25.6043 6.96753 24.6333 6.96753 23.6771L18.2844 15.012L29.6014 23.6771Z" fill="#55AD2E"/>
<path d="M29.6028 6.33008V23.6756L18.2859 14.9952L29.6028 6.33008Z" fill="#9AC014"/>
</g>
</svg>
